HIERARCHY
ROOT Hips
{
	OFFSET 0.00000 0.00000 0.00000
	CHANNELS 6 Xposition Yposition Zposition Zrotation Yrotation Xrotation 
	JOINT LHipJoint
	{
		OFFSET 0 0 0
		CHANNELS 3 Zrotation Yrotation Xrotation
		JOINT LeftHip
		{
			OFFSET 1.64577 -1.42384 0.94276
			CHANNELS 3 Zrotation Yrotation Xrotation
			JOINT LeftKnee
			{
				OFFSET 2.11538 -5.81197 0.00000
				CHANNELS 3 Zrotation Yrotation Xrotation
				JOINT LeftAnkle
				{
					OFFSET 2.36541 -6.49893 0.00000
					CHANNELS 3 Zrotation Yrotation Xrotation
					JOINT LeftToe
					{
						OFFSET 0.17759 -0.48793 1.73865
						CHANNELS 3 Zrotation Yrotation Xrotation
						End Site
						{
							OFFSET 0.00000 -0.00000 0.91205
						}
					}
				}
			}
		}
	}
	JOINT RHipJoint
	{
		OFFSET 0 0 0
		CHANNELS 3 Zrotation Yrotation Xrotation
		JOINT RightHip
		{
			OFFSET -1.43750 -1.42384 0.94276
			CHANNELS 3 Zrotation Yrotation Xrotation
			JOINT RightKnee
			{
				OFFSET -2.10480 -5.78291 0.00000
				CHANNELS 3 Zrotation Yrotation Xrotation
				JOINT RightAnkle
				{
					OFFSET -2.34880 -6.45329 0.00000
					CHANNELS 3 Zrotation Yrotation Xrotation
					JOINT RightToe
					{
						OFFSET -0.22842 -0.62757 1.80469
						CHANNELS 3 Zrotation Yrotation Xrotation
						End Site
						{
							OFFSET -0.00000 -0.00000 0.95886
						}
					}
				}
			}
		}
	}
	JOINT lowerback
	{
		OFFSET 0 0 0
		CHANNELS 3 Zrotation Yrotation Xrotation
		JOINT Chest
		{
			OFFSET 0.06217 1.93758 -0.49272
			CHANNELS 3 Zrotation Yrotation Xrotation
			JOINT Chest2
			{
				OFFSET -0.03114 2.03621 -0.05830
				CHANNELS 3 Zrotation Yrotation Xrotation
				JOINT lowerneck
				{
					OFFSET 0 0 0
					CHANNELS 3 Zrotation Yrotation Xrotation
					JOINT Neck
					{
						OFFSET 0.04421 1.41010 0.26562
						CHANNELS 3 Zrotation Yrotation Xrotation
						JOINT Head
						{
							OFFSET -0.13407 1.43847 0.06181
							CHANNELS 3 Zrotation Yrotation Xrotation
							End Site
							{
								OFFSET -0.04980 1.45844 -0.00689
							}
						}
					}
				}
				JOINT LeftCollar
				{
					OFFSET 0 0 0
					CHANNELS 3 Zrotation Yrotation Xrotation
					JOINT LeftShoulder
					{
						OFFSET 2.18382 1.47753 -0.35694
CHANNELS 3 Zrotation Xrotation Yrotation
						JOINT LeftElbow
						{
OFFSET 0 -5.054600 0.000000
CHANNELS 3 Zrotation Xrotation Yrotation
							JOINT LeftWrist
							{
OFFSET 0 -3.390130 0.000000
CHANNELS 3 Zrotation Xrotation Yrotation
								JOINT lhand
								{
									OFFSET 0 0 0
CHANNELS 3 Zrotation Xrotation Yrotation
									JOINT LFingers
									{
OFFSET 0 -0.572420 -0.000000
CHANNELS 3 Zrotation Xrotation Yrotation
										End Site
										{
OFFSET 0 -0.461500 -0.000000
										}
									}
								}
								JOINT LThumb
								{
OFFSET 0 0.000000 0.000000
CHANNELS 3 Zrotation Xrotation Yrotation
									End Site
									{
OFFSET 0 -0.468550 0.468550
									}
								}
							}
						}
					}
				}
				JOINT RightCollar
				{
					OFFSET 0 0 0
					CHANNELS 3 Zrotation Yrotation Xrotation
					JOINT RightShoulder
					{
						OFFSET -2.06033 1.72839 -0.47437
CHANNELS 3 Zrotation Xrotation Yrotation
						JOINT RightElbow
						{
OFFSET 0 -5.070100 0.000000
CHANNELS 3 Zrotation Xrotation Yrotation
							JOINT RightWrist
							{
OFFSET 0 -3.149570 -0.000000
CHANNELS 3 Zrotation Xrotation Yrotation
								JOINT rhand
								{
									OFFSET 0 0 0
CHANNELS 3 Zrotation Xrotation Yrotation
									JOINT RFingers
									{
OFFSET 0 -0.718190 -0.000000
CHANNELS 3 Zrotation Xrotation Yrotation
										End Site
										{
OFFSET 0 -0.579020 -0.000000
										}
									}
								}
								JOINT RThumb
								{
OFFSET 0 0.000000 0.000000
CHANNELS 3 Zrotation Xrotation Yrotation
									End Site
									{
OFFSET 0 -0.587860 0.587860
									}
								}
							}
						}
					}
				}
			}
		}
	}
}
MOTION
Frames: 5
Frame Time: 0.008333333333333333
-23.106354 14.798413 1.061113 -184.564922 70.480397 177.683861 0.000000 0.000000 0.000000 -24.983328 6.360931 -11.615803 4.751281 13.092365 39.725009 4.415745 16.092730 -47.165793 0.754475 5.532991 15.438993 0.000000 0.000000 0.000000 23.718681 17.306725 -16.518141 -4.335927 -12.594230 37.868305 -3.860855 -14.464365 -43.972960 -0.003383 -0.373211 1.025520 -5.114784 0.002418 5.683129 -2.124286 -0.058767 3.817885 0.683324 -0.028137 0.764464 3.960277 0.563572 -9.627879 1.263018 0.179446 18.858789 -0.214152 0.611060 7.384691 0.000000 0.000000 0.000000 11.042759 -0.427548 -19.654692 38.203527 -46.963380 17.115983 24.794148 -10.623063 -9.124349 0.000000 0.000000 0.000000 -7.125000 0.000000 0.000000 -1.876736 40.006569 -0.233152 0.000000 0.000000 0.000000 -3.210827 9.311352 30.599330 -19.726567 -30.310601 -5.393114 -17.564550 -20.299327 -0.513859 0.000000 0.000000 0.000000 7.125000 0.000000 0.000000 7.045337 29.406839 2.696690
-23.057283 14.799311 1.066452 -185.065396 71.758528 176.982402 0.000000 0.000000 0.000000 -24.376023 7.421426 -12.780502 5.275262 13.681369 41.987012 3.518067 16.764385 -43.994896 0.559059 4.775119 13.270889 0.000000 0.000000 0.000000 24.023280 17.906618 -15.637304 -4.252344 -12.488643 37.483608 -3.860846 -14.395145 -43.930691 -0.001550 -0.243288 0.668510 -4.987028 0.141356 5.884501 -2.190787 0.118633 3.818999 0.534482 0.066314 0.644624 4.069757 0.642063 -9.755481 1.166872 0.274903 18.934850 -0.254462 0.655886 7.434280 0.000000 0.000000 0.000000 11.042744 -0.161737 -20.751505 39.428159 -47.724234 18.015993 24.180798 -9.947778 -8.238557 0.000000 0.000000 0.000000 -7.125000 0.000000 0.000000 -2.327180 38.989676 -0.348168 0.000000 0.000000 0.000000 -3.069409 9.154365 30.510783 -19.319184 -29.812729 -5.188867 -17.429014 -19.779161 -0.520078 0.000000 0.000000 0.000000 7.125000 0.000000 0.000000 7.150600 29.399677 2.738788
-23.008878 14.799718 1.067927 -185.443411 73.040479 176.402866 0.000000 0.000000 0.000000 -23.766611 8.072772 -13.881842 5.828396 14.254487 44.278502 2.729337 17.192078 -40.864591 0.395403 4.018478 11.131136 0.000000 0.000000 0.000000 24.380160 18.545972 -14.749105 -4.171974 -12.385636 37.110526 -3.852905 -14.379756 -43.887973 -0.000372 -0.049780 0.136729 -4.760432 0.277922 6.077199 -2.252161 0.298106 3.822556 0.334565 0.162660 0.533180 4.207139 0.737519 -9.863799 1.040082 0.394522 18.955543 -0.307381 0.709426 7.463063 0.000000 0.000000 0.000000 11.003599 0.115245 -21.748853 40.333264 -48.264615 18.688051 23.473644 -9.278293 -7.245675 0.000000 0.000000 0.000000 -7.125000 0.000000 0.000000 -2.844842 37.858851 -0.504076 0.000000 0.000000 0.000000 -2.947087 8.979982 30.452297 -18.991543 -29.407820 -5.026863 -17.249703 -19.288061 -0.553147 0.000000 0.000000 0.000000 7.125000 0.000000 0.000000 7.287940 29.364434 2.798357
-22.960823 14.800690 1.064935 -185.643634 74.286983 176.028903 0.000000 0.000000 0.000000 -23.179135 8.247818 -14.906579 6.382913 14.784770 46.491206 2.083921 17.244063 -37.825042 0.240713 3.118740 8.612630 0.000000 0.000000 0.000000 24.772804 19.170291 -13.898777 -4.093997 -12.284306 36.745565 -3.844945 -14.383557 -43.856688 -0.002019 0.236825 -0.650811 -4.442515 0.395862 6.237975 -2.291897 0.458628 3.823874 0.106178 0.249603 0.439552 4.351008 0.848486 -9.947581 0.884559 0.540345 18.927713 -0.368498 0.771521 7.472390 0.000000 0.000000 0.000000 10.897192 0.401949 -22.647698 40.892096 -48.589190 19.105776 22.768572 -8.552055 -6.277122 0.000000 0.000000 0.000000 -7.125000 0.000000 0.000000 -3.358103 36.765839 -0.684165 0.000000 0.000000 0.000000 -2.864764 8.785627 30.418699 -18.745377 -29.100879 -4.906490 -17.052908 -18.855071 -0.603548 0.000000 0.000000 0.000000 7.125000 0.000000 0.000000 7.437540 29.311216 2.866188
-22.913091 14.802698 1.057615 -185.650633 75.477671 175.885616 0.000000 0.000000 0.000000 -22.648225 7.918171 -15.841006 6.909102 15.251277 48.523417 1.610013 16.858370 -35.003994 0.102919 1.977412 5.446336 0.000000 0.000000 0.000000 25.175376 19.719470 -13.125610 -4.020024 -12.186882 36.396499 -3.841850 -14.366306 -43.833107 -0.010841 0.636468 -1.749149 -4.064396 0.487262 6.364639 -2.296234 0.588621 3.823467 -0.118111 0.320673 0.365953 4.479277 0.973245 -10.006908 0.704729 0.713208 18.865501 -0.432656 0.841983 7.466882 0.000000 0.000000 0.000000 10.703026 0.679234 -23.449563 41.069203 -48.690722 19.238538 22.169983 -7.760716 -5.405363 0.000000 0.000000 0.000000 -7.125000 0.000000 0.000000 -3.786490 35.793266 -0.860211 0.000000 0.000000 0.000000 -2.843994 8.571277 30.420561 -18.581988 -28.895852 -4.827217 -16.888263 -18.516250 -0.663374 0.000000 0.000000 0.000000 7.125000 0.000000 0.000000 7.561270 29.248553 2.925955
